<?xml version="1.0" standalone="no"?>
<!DOCTYPE svg PUBLIC "-//W3C//DTD SVG 20010904//EN"
 "http://www.w3.org/TR/2001/REC-SVG-20010904/DTD/svg10.dtd">
<svg version="1.0" xmlns="http://www.w3.org/2000/svg"
 width="700.000000pt" height="700.000000pt" viewBox="0 0 700.000000 700.000000"
 preserveAspectRatio="xMidYMid meet">
<metadata>
Created by potrace 1.11, written by Peter Selinger 2001-2013
</metadata>
<g transform="translate(0.000000,700.000000) scale(0.100000,-0.100000)"
fill="#000000" stroke="none">
<path d="M6697 6634 c-1 -1 -30 -5 -64 -8 -157 -14 -354 -72 -518 -150 -344
-165 -615 -419 -852 -801 -76 -122 -188 -355 -238 -495 -26 -72 -276 -901
-691 -2287 -109 -365 -200 -663 -203 -663 -3 0 -41 100 -84 223 -43 122 -82
231 -86 242 -5 11 -14 34 -20 50 -41 116 -478 1346 -501 1410 -40 111 -104
291 -226 635 -204 573 -196 555 -225 558 -29 3 -15 41 -179 -468 -62 -190
-141 -435 -177 -545 -101 -312 -191 -589 -233 -720 -62 -192 -180 -554 -205
-630 -22 -66 -207 -636 -258 -794 -13 -41 -26 -70 -29 -65 -3 5 -40 122 -83
259 -42 138 -90 291 -105 340 -133 424 -610 1958 -652 2100 -24 78 -30 169
-15 224 9 35 54 89 96 117 37 24 119 44 158 38 15 -3 19 3 19 26 l0 30 -628 0
-628 0 0 -29 c0 -26 3 -28 33 -28 194 5 402 -121 484 -293 14 -30 47 -116 74
-190 26 -74 97 -277 158 -450 62 -173 114 -322 118 -330 3 -8 7 -19 9 -25 4
-16 163 -466 184 -520 10 -27 49 -135 85 -240 37 -104 105 -298 152 -430 47
-132 123 -348 170 -480 47 -132 114 -321 149 -420 35 -99 64 -185 64 -191 0
-17 -48 -132 -106 -252 -76 -158 -182 -327 -289 -462 -50 -63 -237 -242 -300
-287 -217 -157 -444 -221 -673 -190 -39 5 -43 3 -48 -19 -4 -14 -5 -27 -3 -29
15 -14 186 -31 300 -29 191 2 324 33 496 115 242 115 472 333 645 611 125 202
189 364 383 973 37 116 89 278 115 360 49 151 169 526 276 860 32 99 58 182
59 185 1 3 21 66 45 140 24 74 44 140 46 145 1 6 25 80 52 165 28 85 76 236
108 335 31 99 59 184 61 189 6 10 24 -28 52 -109 24 -71 28 -84 178 -500 63
-176 137 -381 163 -455 117 -330 703 -1970 720 -2015 10 -27 24 -67 31 -87 11
-32 18 -38 41 -38 25 0 28 4 29 33 1 36 4 63 20 157 6 36 13 79 16 95 13 88
72 302 128 465 83 244 175 512 275 800 45 129 90 260 100 290 23 69 186 540
235 680 20 58 47 137 60 175 13 39 65 189 115 335 51 146 121 351 157 455 35
105 73 213 83 240 10 28 40 106 65 175 84 225 207 484 276 582 11 14 19 28 19
31 0 2 20 34 44 70 273 408 623 665 992 731 132 24 136 24 177 25 36 1 38 3
35 29 l-3 27 -113 0 c-62 0 -114 0 -115 -1z"/>
</g>
</svg>
