<?xml version="1.0" encoding="utf-8"?>
<!-- Generator: Adobe Illustrator 16.0.4, SVG Export Plug-In . SVG Version: 6.00 Build 0)  -->
<!DOCTYPE svg PUBLIC "-//W3C//DTD SVG 1.1//EN" "http://www.w3.org/Graphics/SVG/1.1/DTD/svg11.dtd">
<svg version="1.1" id="Layer_1" xmlns="http://www.w3.org/2000/svg" xmlns:xlink="http://www.w3.org/1999/xlink" x="0px" y="0px"
	 width="100px" height="35px" viewBox="0 0 100 35" enable-background="new 0 0 100 35" xml:space="preserve">
<path fill="#FFFFFF" d="M47.873,11.28c0.478-1.596,1.83-3.813,4.477-3.712v0.13c-2.143,0.085-3.165,2.21-3.637,3.582l-2.48,7.195
	c0,0-0.263,0.819-0.283,1.436h-0.122l-2.635-7.37l-2.08,6.502c-0.583,1.824-1.982,3.217-3.855,2.804l0.026-0.13
	c1.44,0.285,2.663-1.159,3.236-2.707l-2.61-7.377c-0.179-0.471-0.629-0.784-1.133-0.787h-0.103v-0.128h2.87v0.127H39.43
	c-0.33,0-0.656,0.287-0.504,0.794l1.953,6.283l2.403-7.406l0.12,0.003l2.553,7.162l1.917-6.402L47.873,11.28z"/>
<path fill="#FFFFFF" d="M52.721,19.755h-2.828l0.002-0.128h0.164c0.45,0,0.817-0.359,0.825-0.812v-7.162
	c-0.011-0.448-0.378-0.806-0.826-0.807h-0.165v-0.13h2.824l-0.005,0.13H52.55c-0.448-0.001-0.815,0.356-0.825,0.805v7.166
	c0.008,0.449,0.373,0.812,0.825,0.812h0.162l0.004,0.128L52.721,19.755z M63.02,15.556c-0.418,0-0.653,0.21-0.646,0.583v2.134
	c-0.588,0.783-1.797,1.662-3.733,1.662C55.895,19.922,54,18.045,54,15.235c0-2.818,1.895-4.698,4.637-4.698
	c1.42,0,2.369,0.383,3.129,0.87l0.26,1.825h-0.107c-0.391-1.478-1.572-2.31-3.277-2.31c-2.187,0-3.67,1.727-3.67,4.315
	c0,2.577,1.483,4.3,3.67,4.313c1.123,0,2.17-0.43,2.916-1.12v-2.287c0-0.378-0.248-0.59-0.666-0.59h-0.205v-0.128h2.53v0.128
	L63.02,15.556z M76.338,10.72v0.127h-0.113c-0.395,0-0.936,0.23-1.133,0.8l-2.14,6.83c0,0-0.261,0.818-0.28,1.434h-0.123l-2.64-7.38
	l-1.957,5.945c0,0-0.248,0.801-0.271,1.437h-0.119l-2.934-8.275c-0.178-0.47-0.627-0.783-1.13-0.787h-0.104v-0.128h2.869v0.128
	H66.15c-0.33,0-0.655,0.285-0.504,0.792l1.953,6.284l2.402-7.406l0.12,0.003l2.548,7.144l1.73-6.046c0.125-0.495-0.15-0.77-0.5-0.77
	h-0.114v-0.128h2.552V10.72z M83.197,18.812c0.262,0.574,0.738,0.812,1.135,0.812h0.107v0.13h-2.91v-0.13h0.113
	c0.334,0,0.681-0.292,0.492-0.811l-0.826-2.197h-3.479l-0.862,2.208c-0.184,0.51,0.16,0.802,0.492,0.802h0.113v0.127h-2.598v-0.128
	h0.114c0.394,0,0.87-0.237,1.13-0.812l2.93-6.947c0,0,0.479-1.047,0.479-1.33h0.117l3.451,8.275H83.197z M81.167,16.231
	l-1.558-4.142l-1.627,4.143h3.183L81.167,16.231z M94.98,18.818c0.064,0.51,0.479,0.81,0.939,0.81h0.205v0.127h-2.807v-0.12h0.199
	c0.28-0.003,0.53-0.262,0.506-0.553l-0.586-6.496l-2.715,6.032c0,0-0.357,0.784-0.44,1.317H90.16l-3.301-7.163l-0.569,6.31
	c-0.013,0.292,0.214,0.538,0.505,0.552h0.2v0.12h-2.5v-0.127h0.204c0.462,0,0.876-0.298,0.941-0.81l0.971-8.28h0.119l3.603,7.79
	l3.524-7.785h0.117l1.002,8.275H94.98z"/>
<path fill="#F7F7F7" d="M56.7,23.55c1.245,0,2.032,0.724,2.032,1.9c0,1.175-0.787,1.896-2.033,1.896h-2.112l0.002-0.062h0.084
	c0.2,0,0.351-0.156,0.354-0.347v-2.981c-0.004-0.193-0.164-0.347-0.357-0.343c-0.002,0-0.004,0-0.006,0.001h-0.076l-0.002-0.062
	h2.109L56.7,23.55z M55.439,27.152H56.7c0.974,0,1.575-0.646,1.575-1.702c0-1.06-0.603-1.71-1.574-1.71h-1.26v3.412H55.439z
	 M62.252,27.346h-2.57v-0.062h0.088c0.203,0,0.357-0.15,0.365-0.336v-3.003c0-0.189-0.16-0.329-0.365-0.329h-0.088v-0.064h1.846
	c0.257-0.002,0.599-0.057,0.711-0.1v0.716h-0.07V24.07c0.007-0.173-0.128-0.318-0.301-0.325c-0.006,0-0.011,0-0.016,0h-1.311v1.61
	h1.08c0.177-0.004,0.257-0.125,0.257-0.271v-0.08h0.067v0.888h-0.067v-0.08c0-0.144-0.076-0.261-0.241-0.271H60.54v1.61h0.989
	c0.607-0.008,0.824-0.305,1.004-0.713H62.6L62.252,27.346L62.252,27.346z M65.46,25.736c0.194,0.164,0.282,0.434,0.284,0.678
	c0.006,0.566-0.494,1.02-1.12,1.02c-0.374,0-0.86-0.092-1.09-0.297c-0.038-0.17-0.024-0.539,0.063-0.787h0.071
	c-0.056,0.572,0.327,0.91,0.886,0.896c0.521-0.017,0.842-0.287,0.842-0.697c0.006-0.194-0.079-0.38-0.229-0.502l-1.265-0.976
	c-0.197-0.172-0.309-0.422-0.303-0.684c-0.007-0.515,0.463-0.924,1.047-0.924c0.289,0,0.483,0.025,0.625,0.061h0.213l0.009,0.686
	h-0.07c0-0.35-0.233-0.561-0.731-0.561c-0.422,0-0.762,0.268-0.76,0.604c0.002,0.163,0.049,0.34,0.25,0.5L65.46,25.736L65.46,25.736
	z M66.814,27.346l0.002-0.062H66.9c0.236,0,0.426-0.154,0.43-0.345v-2.982c-0.004-0.189-0.193-0.342-0.43-0.342h-0.084l-0.002-0.064
	h1.434v0.065h-0.084c-0.23,0-0.42,0.146-0.43,0.329v3c0.008,0.188,0.197,0.341,0.43,0.341h0.084v0.06H66.814z M73.07,26.62
	c-0.295,0.372-0.912,0.813-1.803,0.813c-1.25-0.007-2.074-0.761-2.074-1.986c0-1.23,0.826-1.986,2.072-1.986
	c0.584,0,1.049,0.124,1.477,0.385l0.14,0.894h-0.056c-0.184-0.74-0.68-1.085-1.566-1.085c-0.965,0-1.609,0.682-1.609,1.795
	c0,1.109,0.649,1.796,1.617,1.796c0.527,0,0.996-0.162,1.391-0.55l0.013-0.838c0.003-0.16-0.11-0.25-0.296-0.25h-0.088v-0.062h1.158
	v0.062h-0.086c-0.187,0-0.291,0.088-0.287,0.25v0.763H73.07z M78.656,23.55v0.064h-0.105c-0.188,0-0.34,0.14-0.35,0.315v2.697
	c0,0.408,0.058,0.807,0.058,0.807h-0.06l-3.29-3.119v2.638c0.004,0.184,0.159,0.332,0.354,0.332h0.104l0.002,0.062h-1.195v-0.062
	h0.105c0.188,0.004,0.345-0.144,0.352-0.332v-2.705c0-0.433-0.061-0.79-0.061-0.79l0.068,0.002l3.282,3.093V23.93
	c-0.016-0.182-0.169-0.319-0.353-0.315h-0.104l-0.002-0.064h1.196H78.656z"/>
<circle fill="#FFFFFF" cx="18" cy="17" r="11.788"/>
<path fill="#050505" d="M27.376,9.854c-1.596,1.552-2.066,2.655-2.485,3.872l-3.243,9.407c0,0-0.343,1.072-0.37,1.876h-0.158
	l-3.447-9.636l-2.72,8.5c-0.49,1.539-2.685,3.431-2.685,3.431l-0.475-0.28c0,0,1.898-1.876,2.386-3.192l-3.415-9.643
	c-0.233-0.616-0.821-1.025-1.479-1.03H9.151V12.99h3.75v0.166h-0.15c-0.43,0-0.855,0.374-0.658,1.037l2.554,8.216l3.143-9.686
	l0.157,0.006l3.338,9.363l2.508-8.368l0.001,0.001c0.443-1.478,1.46-3.364,3.246-4.292C27.061,9.422,27.391,9.84,27.376,9.854z"/>
</svg>
