<svg enable-background="new 0 0 100 35" height="35" viewBox="0 0 100 35" width="100" xmlns="http://www.w3.org/2000/svg"><path d="m47.873 11.28c.478-1.596 1.83-3.813 4.477-3.712v.13c-2.143.085-3.165 2.21-3.637 3.582l-2.48 7.195s-.263.819-.283 1.436h-.122l-2.635-7.37-2.08 6.502c-.583 1.824-1.982 3.217-3.855 2.804l.026-.13c1.44.285 2.663-1.159 3.236-2.707l-2.61-7.377c-.179-.471-.629-.784-1.133-.787h-.103v-.128h2.87v.127h-.114c-.33 0-.656.287-.504.794l1.953 6.283 2.403-7.406.12.003 2.553 7.162 1.917-6.402z" fill="#231f20"/><path d="m52.721 19.755h-2.828l.002-.128h.164c.45 0 .817-.359.825-.812v-7.162c-.011-.448-.378-.806-.826-.807h-.165v-.13h2.824l-.005.13h-.162c-.448-.001-.815.356-.825.805v7.166c.008.449.373.812.825.812h.162l.004.128zm10.299-4.199c-.418 0-.653.21-.646.583v2.134c-.588.783-1.797 1.662-3.733 1.662-2.746-.013-4.641-1.89-4.641-4.7 0-2.818 1.895-4.698 4.637-4.698 1.42 0 2.369.383 3.129.87l.26 1.825h-.107c-.391-1.478-1.572-2.31-3.277-2.31-2.187 0-3.67 1.727-3.67 4.315 0 2.577 1.483 4.3 3.67 4.313 1.123 0 2.17-.43 2.916-1.12v-2.287c0-.378-.248-.59-.666-.59h-.205v-.128h2.53v.128zm13.318-4.836v.127h-.113c-.395 0-.936.23-1.133.8l-2.14 6.83s-.261.818-.28 1.434h-.123l-2.64-7.38-1.957 5.945s-.248.801-.271 1.437h-.119l-2.934-8.275c-.178-.47-.627-.783-1.13-.787h-.104v-.128h2.869v.128h-.113c-.33 0-.655.285-.504.792l1.953 6.284 2.402-7.406.12.003 2.548 7.144 1.73-6.046c.125-.495-.15-.77-.5-.77h-.114v-.128h2.552v-.004zm6.859 8.092c.262.574.738.812 1.135.812h.107v.13h-2.91v-.13h.113c.334 0 .681-.292.492-.811l-.826-2.197h-3.479l-.862 2.208c-.184.51.16.802.492.802h.113v.127h-2.598v-.128h.114c.394 0 .87-.237 1.13-.812l2.93-6.947s.479-1.047.479-1.33h.117l3.451 8.275h.002zm-2.03-2.581-1.558-4.142-1.627 4.143h3.183zm13.813 2.587c.064.51.479.81.939.81h.205v.127h-2.807v-.12h.199c.28-.003.53-.262.506-.553l-.586-6.496-2.715 6.032s-.357.784-.44 1.317h-.121l-3.301-7.163-.569 6.31c-.013.292.214.538.505.552h.2v.12h-2.5v-.127h.204c.462 0 .876-.298.941-.81l.971-8.28h.119l3.603 7.79 3.524-7.785h.117l1.002 8.275h.004z" fill="#231f20"/><path d="m56.7 23.55c1.245 0 2.032.724 2.032 1.9 0 1.175-.787 1.896-2.033 1.896h-2.112l.002-.062h.084c.2 0 .351-.156.354-.347v-2.981c-.004-.193-.164-.347-.357-.343-.002 0-.004 0-.006.001h-.076l-.002-.062h2.109zm-1.261 3.602h1.261c.974 0 1.575-.646 1.575-1.702 0-1.06-.603-1.71-1.574-1.71h-1.26v3.412zm6.813.194h-2.57v-.062h.088c.203 0 .357-.15.365-.336v-3.003c0-.189-.16-.329-.365-.329h-.088v-.064h1.846c.257-.002.599-.057.711-.1v.716h-.07v-.098c.007-.173-.128-.318-.301-.325-.006 0-.011 0-.016 0h-1.311v1.61h1.08c.177-.004.257-.125.257-.271v-.08h.067v.888h-.067v-.08c0-.144-.076-.261-.241-.271h-1.097v1.61h.989c.607-.008.824-.305 1.004-.713h.067zm3.208-1.61c.194.164.282.434.284.678.006.566-.494 1.02-1.12 1.02-.374 0-.86-.092-1.09-.297-.038-.17-.024-.539.063-.787h.071c-.056.572.327.91.886.896.521-.017.842-.287.842-.697.006-.194-.079-.38-.229-.502l-1.265-.976c-.197-.172-.309-.422-.303-.684-.007-.515.463-.924 1.047-.924.289 0 .483.025.625.061h.213l.009.686h-.07c0-.35-.233-.561-.731-.561-.422 0-.762.268-.76.604.002.163.049.34.25.5zm1.354 1.61.002-.062h.084c.236 0 .426-.154.43-.345v-2.982c-.004-.189-.193-.342-.43-.342h-.084l-.002-.064h1.434v.065h-.084c-.23 0-.42.146-.43.329v3c.008.188.197.341.43.341h.084v.06zm6.256-.726c-.295.372-.912.813-1.803.813-1.25-.007-2.074-.761-2.074-1.986 0-1.23.826-1.986 2.072-1.986.584 0 1.049.124 1.477.385l.14.894h-.056c-.184-.74-.68-1.085-1.566-1.085-.965 0-1.609.682-1.609 1.795 0 1.109.649 1.796 1.617 1.796.527 0 .996-.162 1.391-.55l.013-.838c.003-.16-.11-.25-.296-.25h-.088v-.062h1.158v.062h-.086c-.187 0-.291.088-.287.25v.763h-.003zm5.586-3.07v.064h-.105c-.188 0-.34.14-.35.315v2.697c0 .408.058.807.058.807h-.06l-3.29-3.119v2.638c.004.184.159.332.354.332h.104l.002.062h-1.195v-.062h.105c.188.004.345-.144.352-.332v-2.705c0-.433-.061-.79-.061-.79l.068.002 3.282 3.093v-2.622c-.016-.182-.169-.319-.353-.315h-.104l-.002-.064h1.196-.001z" fill="#58595b"/><circle cx="18" cy="17" fill="#231f20" r="11.788"/><path d="m27.039 9.434c-1.786.928-2.803 2.813-3.246 4.292l-.001-.001-2.508 8.368-3.338-9.363-.157-.006-3.143 9.686-2.554-8.216c-.197-.663.229-1.037.658-1.037h.15v-.167h-3.75v.168h.133c.658.005 1.246.414 1.479 1.03l3.415 9.643c-.487 1.316-2.386 3.192-2.386 3.192l.475.28s2.194-1.892 2.685-3.431l2.72-8.5 3.447 9.636h.158c.027-.804.37-1.876.37-1.876l3.243-9.407c.419-1.217.89-2.32 2.485-3.872.017-.013-.313-.431-.335-.419z" fill="#fff"/></svg>