<svg enable-background="new 0 0 317 289" height="289" viewBox="0 0 317 289" width="317" xmlns="http://www.w3.org/2000/svg"><g fill="#fff"><path d="m70.758 188.029c2.266-7.572 8.686-18.086 21.24-17.609v.613c-10.166.414-15.014 10.49-17.257 16.996l-11.763 34.123s-1.245 3.891-1.338 6.808h-.58l-12.5-34.954-9.87 30.838c-2.76 8.648-9.396 15.262-18.276 13.303l.123-.61c6.835 1.347 12.632-5.511 15.35-12.845l-12.383-34.982c-1.015-2.66-3.49-3.733-5.367-3.733h-.49v-.61h13.608v.604h-.538c-1.566 0-3.112 1.357-2.39 3.766l9.262 29.803 11.402-35.13.57.021 12.11 33.967z"/><path d="m93.742 228.227h-13.397l.01-.61h.775c2.138-.001 3.882-1.714 3.922-3.851v-33.971c-.053-2.127-1.792-3.824-3.92-3.824h-.775l-.01-.613h13.396l-.01.613h-.775c-2.123 0-3.859 1.689-3.92 3.812v33.979c.039 2.139 1.782 3.852 3.92 3.853h.775zm48.858-19.924c-1.98 0-3.094 1-3.065 2.771v10.126c-2.792 3.71-8.514 7.887-17.71 7.887-13.02-.06-22.008-8.962-22.008-22.29 0-13.372 8.987-22.288 21.99-22.288 6.736 0 11.246 1.82 14.844 4.136l1.237 8.647h-.51c-1.86-7.007-7.465-10.95-15.55-10.95-10.38 0-17.417 8.184-17.417 20.458 0 12.22 7.037 20.402 17.416 20.457 5.322 0 10.286-2.047 13.817-5.31v-10.85c0-1.791-1.173-2.797-3.15-2.797h-.966v-.611h11.994v.611h-.92zm63.173-22.94v.611h-.541c-1.867 0-4.431 1.09-5.371 3.795l-10.139 32.385s-1.244 3.89-1.339 6.806h-.577l-12.521-35.015-9.278 28.209s-1.184 3.798-1.283 6.807h-.578l-13.896-39.25c-1.016-2.66-3.49-3.732-5.367-3.732h-.49v-.612h13.607v.606h-.538c-1.566 0-3.112 1.355-2.39 3.764l9.262 29.804 11.4-35.13.57.021 12.074 33.869 8.2-28.676c.606-2.352-.705-3.652-2.37-3.652h-.54v-.604h12.104v-.006zm32.532 38.397c1.238 2.725 3.504 3.854 5.381 3.854h.51v.611h-13.787v-.604h.539c1.58 0 3.221-1.396 2.324-3.847l-3.916-10.43h-16.492l-4.104 10.467c-.863 2.428.768 3.81 2.34 3.81h.541v.604h-12.326v-.611h.552c1.86 0 4.126-1.131 5.362-3.85l13.888-32.953s2.268-4.959 2.268-6.307h.554l16.369 39.254v.002zm-9.64-12.25-7.38-19.652-7.703 19.651zm65.523 12.267c.312 2.421 2.272 3.836 4.461 3.836h.976v.613h-13.312v-.578h.953c1.319-.004 2.512-1.23 2.387-2.615l-2.774-30.812-12.868 28.61s-1.705 3.72-2.102 6.254h-.576l-15.66-33.976-2.688 29.925c-.119 1.319 1.066 2.61 2.388 2.614h.955v.578h-11.86v-.613h.977c2.189 0 4.149-1.416 4.464-3.836l4.604-39.271h.567l17.09 36.948 16.705-36.931h.56z"/><path d="m112.624 246.23c5.917 0 9.645 3.424 9.645 9.008 0 5.572-3.73 8.99-9.646 8.99h-10.006l.005-.302h.4c.945 0 1.656-.735 1.682-1.63v-14.154c-.03-.945-.773-1.617-1.715-1.617h-.367l-.005-.297zm-5.966 17.086h5.98c4.607 0 7.462-3.069 7.462-8.078 0-5.026-2.855-8.106-7.46-8.106h-5.982zm32.299.914h-12.187l.005-.301h.412c.968 0 1.695-.709 1.732-1.595v-14.234c0-.895-.76-1.57-1.734-1.57h-.412l-.005-.301h8.763c1.207-.008 2.83-.268 3.352-.471v3.395l-.327-.004v-.461c0-.842-.59-1.523-1.504-1.543h-6.22v7.633h5.125c.83-.019 1.215-.579 1.215-1.272v-.382l.326-.003v4.214l-.325-.004v-.38c0-.677-.362-1.228-1.146-1.272h-5.196v7.635h4.69c2.883-.039 3.91-1.443 4.76-3.388h.326l-1.653 4.306h.003zm15.215-7.636c.925.777 1.348 2.057 1.358 3.223.024 2.679-2.35 4.83-5.31 4.83-1.778 0-4.082-.434-5.175-1.412-.19-.799-.112-2.564.298-3.726h.346c-.266 2.7 1.554 4.312 4.2 4.237 2.48-.07 3.998-1.363 3.998-3.312 0-.935-.32-1.697-1.093-2.375l-6-4.63c-1.118-.954-1.42-2.2-1.434-3.241-.035-2.438 2.184-4.381 4.96-4.381 1.374 0 2.297.122 2.968.277h1.002l.045 3.264h-.344c0-1.662-1.11-2.652-3.465-2.652-2.003 0-3.617 1.268-3.605 2.859.005.772.238 1.607 1.18 2.363l6.072 4.674zm6.435 7.633.006-.3h.4c1.113 0 2.016-.725 2.038-1.625v-14.149c-.022-.899-.926-1.625-2.042-1.625h-.398l-.006-.301h6.797v.301h-.402c-1.092 0-1.982.695-2.035 1.572v14.227c.035.89.934 1.602 2.036 1.602h.399l.004.301h-6.797zm29.664-3.448c-1.396 1.768-4.319 3.865-8.543 3.865-5.932-.029-9.84-3.605-9.84-9.42 0-5.841 3.918-9.42 9.828-9.42 2.766 0 4.98.579 7.006 1.815l.658 4.237h-.264c-.87-3.506-3.231-5.153-7.43-5.153-4.582 0-7.635 3.237-7.635 8.521 0 5.262 3.068 8.521 7.672 8.521 2.496 0 4.713-.771 6.592-2.601l.052-3.984c.01-.756-.521-1.18-1.396-1.18h-.429v-.301h5.502v.301h-.41c-.877 0-1.368.422-1.366 1.188zm26.499-14.552-.006.301h-.498c-.89 0-1.615.664-1.668 1.502v12.789c0 1.936.285 3.828.285 3.828h-.285l-15.603-14.804v12.517c.017.871.757 1.568 1.67 1.568h.5l.003.301h-5.67l.004-.301h.5c.912 0 1.652-.699 1.67-1.566v-12.834c0-2.049-.287-3.748-.287-3.748l.322.016 15.566 14.672v-12.439c-.056-.834-.78-1.498-1.668-1.498h-.498l-.006-.299h5.668v-.005z"/><path d="m195.16 63.913c3.848-12.854 14.744-30.704 36.058-29.895v1.04c-17.256.705-25.487 17.81-29.296 28.856l-19.974 57.933s-2.11 6.605-2.271 11.555h-.981l-21.222-59.342-16.753 52.354c-4.687 14.682-15.952 25.908-31.028 22.583l.208-1.04c11.605 2.287 21.446-9.355 26.063-21.805l-21.027-59.388c-1.723-4.516-5.927-6.34-9.112-6.34h-.83v-1.038h23.1v1.03h-.914c-2.66 0-5.284 2.3-4.06 6.39l15.726 50.594 19.358-59.64.967.033 20.561 57.663 15.431-51.543z"/></g></svg>